<svg xmlns="http://www.w3.org/2000/svg" viewBox="0 0 512 512" width="512" height="512">
  <!-- Background -->
  <rect width="512" height="512" fill="#3B82F6" rx="80"/>
  
  <!-- Charging Station Body -->
  <rect x="180" y="150" width="80" height="200" fill="white" rx="8"/>
  
  <!-- Screen -->
  <rect x="190" y="170" width="60" height="40" fill="#1E40AF" rx="4"/>
  
  <!-- Charging Port -->
  <circle cx="220" cy="240" r="15" fill="#10B981"/>
  <circle cx="220" cy="240" r="8" fill="white"/>
  
  <!-- Cable -->
  <path d="M235 240 Q260 240 280 260 Q300 280 320 280" stroke="white" stroke-width="8" fill="none" stroke-linecap="round"/>
  
  <!-- Plug -->
  <rect x="315" y="270" width="20" height="20" fill="white" rx="4"/>
  <rect x="320" y="275" width="10" height="10" fill="#3B82F6" rx="2"/>
  
  <!-- Lightning Bolt -->
  <path d="M210 280 L225 290 L215 305 L230 315 L215 330 L200 320 L210 305 L195 295 Z" fill="#FBBF24"/>
  
  <!-- Base -->
  <rect x="170" y="350" width="100" height="30" fill="white" rx="15"/>
  
  <!-- Text -->
  <text x="256" y="420" text-anchor="middle" font-family="Arial, sans-serif" font-size="36" font-weight="bold" fill="white">EP</text>
  <text x="256" y="450" text-anchor="middle" font-family="Arial, sans-serif" font-size="16" fill="white">EndlessPower</text>
</svg>
